<svg width="667" height="135" viewBox="0 0 667 135" fill="none" xmlns="http://www.w3.org/2000/svg">
<path d="M135.471 98.2128C136.011 101.863 136.485 105.243 137.025 108.623C138.31 116.87 139.459 125.05 140.811 133.23C141.081 134.784 140 134.244 139.391 134.244C127.021 134.244 114.65 134.244 102.347 134.244C100.116 134.244 97.885 134.244 95.6542 134.244C94.6402 134.244 94.3022 134.041 94.505 132.959C96.533 122.076 98.4934 111.26 100.521 100.376C100.589 99.9028 100.927 99.2268 100.589 98.8888C100.183 98.4832 99.6426 98.9563 99.1694 99.1591C83.351 105.514 72.5349 116.668 66.6537 132.621C66.1805 133.838 65.6397 134.244 64.4229 134.244C60.0289 134.176 55.6349 134.176 51.2409 134.176C50.7677 134.176 50.2269 134.176 49.6861 134.108C47.5905 133.906 47.5229 133.906 48.1989 131.81C56.6489 104.094 74.7657 86.1123 102.955 79.4875C126.547 74.0795 156.63 79.3523 135.471 98.2128Z" fill="#6699FF"/>
<path d="M169.541 54.2727L188.469 53.9347C188.469 53.9347 183.399 88.2755 135.335 98.2804L136.011 79.7579C136.079 79.7579 159.672 82.7999 169.541 54.2727Z" fill="#6699FF"/>
<path d="M17.9816 120.521C27.9126 120.521 35.9633 112.47 35.9633 102.539C35.9633 92.6082 27.9126 84.5575 17.9816 84.5575C8.05065 84.5575 0 92.6082 0 102.539C0 112.47 8.05065 120.521 17.9816 120.521Z" fill="#34D399"/>
<path d="M179.073 46.9042C185.494 46.9042 190.7 41.6985 190.7 35.277C190.7 28.8555 185.494 23.6498 179.073 23.6498C172.651 23.6498 167.446 28.8555 167.446 35.277C167.446 41.6985 172.651 46.9042 179.073 46.9042Z" fill="#34D399"/>
<path d="M50.4973 81.3803C64.3111 81.3803 75.5094 70.182 75.5094 56.3683C75.5094 42.5545 64.3111 31.3562 50.4973 31.3562C36.6835 31.3562 25.4853 42.5545 25.4853 56.3683C25.4853 70.182 36.6835 81.3803 50.4973 81.3803Z" fill="#CC99FF"/>
<path d="M115.529 58.2611C131.582 58.2611 144.597 45.2468 144.597 29.193C144.597 13.1392 131.582 0.124939 115.529 0.124939C99.4748 0.124939 86.4606 13.1392 86.4606 29.193C86.4606 45.2468 99.4748 58.2611 115.529 58.2611Z" fill="#FEDA63"/>
<path d="M209 62.4L213.5 52.2C217.8 55.1 223.9 57 229.5 57C235.2 57 237.4 55.4 237.4 53C237.4 45.2 209.8 50.9 209.8 32.7C209.8 23.9 216.9 16.8 231.3 16.8C237.6 16.8 244.2 18.3 248.9 21.1L244.7 31.4C240.1 28.9 235.5 27.6 231.2 27.6C225.4 27.6 223.4 29.6 223.4 32C223.4 39.5 251 33.9 251 52C251 60.6 243.9 67.8 229.5 67.8C221.5 67.8 213.6 65.6 209 62.4Z" fill="#6699FF"/>
<path d="M270.6 28.8H255.7V17.7H299.2V28.8H284.3V66.8H270.6V28.8Z" fill="#6699FF"/>
<path d="M334.1 47.1L327.8 31.4L321.5 47.1H334.1ZM338.1 57.3H317.6L313.8 66.8H299.8L321.3 17.7H334.9L356.4 66.8H342L338.1 57.3Z" fill="#6699FF"/>
<path d="M393.6 35.9C393.6 31.3 390.8 28.7 385.1 28.7H377.4V43.1H385.1C390.8 43.1 393.6 40.4 393.6 35.9ZM407.6 35.9C407.6 47.1 399.3 54 386 54H377.5V66.8H363.7V17.7H386C399.2 17.7 407.6 24.7 407.6 35.9Z" fill="#6699FF"/>
<path d="M415.1 62.4L419.6 52.2C423.9 55.1 430 57 435.6 57C441.3 57 443.5 55.4 443.5 53C443.5 45.2 415.9 50.9 415.9 32.7C415.9 23.9 423 16.8 437.4 16.8C443.7 16.8 450.3 18.3 455 21.1L450.8 31.4C446.2 28.9 441.6 27.6 437.3 27.6C431.5 27.6 429.5 29.6 429.5 32C429.5 39.5 457.1 33.9 457.1 52C457.1 60.6 450 67.8 435.6 67.8C427.6 67.8 419.7 65.6 415.1 62.4Z" fill="#34D399"/>
<path d="M476.7 28.8H461.8V17.7H505.3V28.8H490.4V66.8H476.7V28.8Z" fill="#34D399"/>
<path d="M553.1 56.1V66.8H514.1V17.7H552.2V28.5H527.7V36.7H549.3V47.1H527.7V56.1H553.1Z" fill="#34D399"/>
<path d="M603.4 56.1V66.8H564.4V17.7H602.5V28.5H578V36.7H599.6V47.1H578V56.1H603.4Z" fill="#34D399"/>
<path d="M660.9 17.7V66.8H649.6L628.1 40.7V66.8H614.6V17.7H625.9L647.4 43.9V17.7H660.9Z" fill="#34D399"/>
<path d="M229.3 109.9C228.3 111.3 227 112.3 225.2 113C223.5 113.7 221.5 114 219.2 114C216.9 114 214.8 113.4 213 112.3C211.2 111.2 209.8 109.6 208.8 107.6C207.8 105.6 207.3 103.2 207.3 100.5V98C207.3 93.7 208.3 90.3 210.3 87.9C212.3 85.5 215.1 84.3 218.7 84.3C221.7 84.3 224.1 85.1 225.9 86.6C227.7 88.1 228.8 90.3 229.2 93.1H225.4C224.7 89.3 222.5 87.4 218.7 87.4C216.2 87.4 214.3 88.3 213 90.1C211.7 91.9 211.1 94.5 211 97.9V100.3C211 103.5 211.7 106.1 213.2 108C214.7 109.9 216.6 110.9 219.1 110.9C220.5 110.9 221.7 110.7 222.8 110.4C223.9 110.1 224.7 109.6 225.4 108.8V102.3H219V99.2H229.4V109.9H229.3Z" fill="#6699FF"/>
<path d="M253.8 100.4H241.4V110.6H255.8V113.7H237.7V84.9H255.6V88H241.4V97.3H253.8V100.4Z" fill="#6699FF"/>
<path d="M266.3 110.6H279.9V113.7H262.6V84.9H266.4V110.6H266.3Z" fill="#6699FF"/>
<path d="M303.1 98.3C303.1 94.9 302.4 92.3 301.1 90.4C299.7 88.6 297.8 87.7 295.4 87.7C293 87.7 291.1 88.6 289.8 90.4C288.4 92.2 287.7 94.8 287.7 98V100.1C287.7 103.4 288.4 106 289.8 107.9C291.2 109.8 293.1 110.7 295.5 110.7C297.9 110.7 299.8 109.8 301.1 108C302.4 106.2 303.1 103.6 303.1 100.3V98.3ZM306.9 100.2C306.9 103 306.4 105.5 305.5 107.6C304.6 109.7 303.2 111.3 301.5 112.4C299.8 113.5 297.8 114.1 295.5 114.1C293.3 114.1 291.3 113.5 289.5 112.4C287.8 111.3 286.4 109.7 285.4 107.6C284.4 105.5 283.9 103.1 283.9 100.4V98.3C283.9 95.5 284.4 93.1 285.3 91C286.3 88.9 287.6 87.2 289.4 86.1C291.1 85 293.1 84.4 295.4 84.4C297.7 84.4 299.7 85 301.4 86.1C303.1 87.2 304.5 88.8 305.4 90.9C306.3 93 306.8 95.5 306.8 98.3L306.9 100.2Z" fill="#6699FF"/>
<path d="M323.6 108.6L331.7 84.9H335.9L325.3 113.7H321.9L311.4 84.9H315.5L323.6 108.6Z" fill="#6699FF"/>
<path d="M357.9 100.4H345.5V110.6H359.8V113.7H341.7V84.9H359.6V88H345.5V97.3H357.9V100.4Z" fill="#6699FF"/>
<path d="M388.5 113.7H384.7L370.4 91.5V113.7H366.6V84.9H370.4L384.8 107.2V84.9H388.5V113.7Z" fill="#6699FF"/>
<path d="M413.4 84.9H409.6V113.7H413.4V84.9Z" fill="#6699FF"/>
<path d="M444.2 113.7H440.4L426.1 91.5V113.7H422.3V84.9H426.1L440.5 107.2V84.9H444.2V113.7Z" fill="#6699FF"/>
<path d="M486 109.9C485 111.3 483.7 112.3 481.9 113C480.2 113.7 478.1 114 475.9 114C473.6 114 471.5 113.4 469.7 112.3C467.9 111.2 466.5 109.6 465.5 107.6C464.5 105.6 464 103.2 464 100.5V98C464 93.7 465 90.3 467 87.9C469 85.5 471.8 84.3 475.4 84.3C478.4 84.3 480.8 85.1 482.6 86.6C484.4 88.1 485.5 90.3 485.9 93.1H482.2C481.5 89.3 479.3 87.4 475.5 87.4C473 87.4 471.1 88.3 469.8 90.1C468.5 91.9 467.9 94.5 467.8 97.9V100.3C467.8 103.5 468.5 106.1 470 108C471.5 109.9 473.4 110.9 475.9 110.9C477.3 110.9 478.5 110.7 479.6 110.4C480.7 110.1 481.5 109.6 482.2 108.8V102.3H475.6V99.2H486V109.9Z" fill="#6699FF"/>
<path d="M510.5 100.4H498.2V110.6H512.5V113.7H494.4V84.9H512.3V88H498.2V97.3H510.5V100.4Z" fill="#6699FF"/>
<path d="M522.1 110.6H538.4V113.7H517.7V110.8L533.3 88H517.9V84.9H537.8V87.7L522.1 110.6Z" fill="#6699FF"/>
<path d="M549.4 84.9H545.6V113.7H549.4V84.9Z" fill="#6699FF"/>
<path d="M580.3 113.7H576.5L562.1 91.5V113.7H558.3V84.9H562.1L576.5 107.2V84.9H580.2V113.7H580.3Z" fill="#6699FF"/>
<path d="M610.9 113.7H607.1L592.8 91.5V113.7H589V84.9H592.8L607.2 107.2V84.9H610.9V113.7Z" fill="#6699FF"/>
<path d="M635.8 100.4H623.4V110.6H637.8V113.7H619.7V84.9H637.6V88H623.4V97.3H635.8V100.4Z" fill="#6699FF"/>
<path d="M666.5 113.7H662.7L648.3 91.5V113.7H644.5V84.9H648.3L662.7 107.2V84.9H666.4V113.7H666.5Z" fill="#6699FF"/>
</svg>
