<?xml version="1.0" encoding="utf-8"?>
<!-- Generator: Adobe Illustrator 25.1.0, SVG Export Plug-In . SVG Version: 6.00 Build 0)  -->
<svg version="1.1" id="Laag_1" xmlns="http://www.w3.org/2000/svg" xmlns:xlink="http://www.w3.org/1999/xlink" x="0px" y="0px"
	 viewBox="0 0 1920 450" style="enable-background:new 0 0 1920 450;" xml:space="preserve">
<style type="text/css">
	.st0{fill:#FDE047;}
	.st1{fill:#C084FC;}
	.st2{fill:#34D399;}
	.st3{fill:#60A5FA;}
</style>
<image style="display:none;overflow:visible;enable-background:new    ;" width="72" height="63" xlink:href="A919911E.png"  transform="matrix(14.8889 0 0 14.8889 482.3931 -244)">
</image>
<circle class="st0" cx="293.4" cy="134" r="68"/>
<circle class="st1" cx="136.5" cy="199.6" r="60.7"/>
<circle class="st2" cx="54.6" cy="313.6" r="43"/>
<path class="st3" d="M296.4,239.9c9.2,0.4,18.3,1.5,27.2,3.6c25.7,5.8,49.4,19.1,69.5,36c11.2,9.4,21.2,20.3,29.9,32.1
	c4.9,6.6,9.3,13.6,13.3,20.8c1.4,2.5,8.3,24.4,9.5,24.4c-23.1,0-32-0.1-32-0.1s-25.5-66.1-82.5-73.3c4.8,49.6,6,73.3,6,73.3h-91.2
	l8.5-74.3c0,0-51.2-4.5-81.7,74.3c-27.7,0.1-30.3,0-30.3,0c-0.2,0,9.9-27.9,10.7-29.6c10.3-21.6,25.2-41.1,44.1-55.9
	C225.3,249.5,261.2,238.6,296.4,239.9z"/>
<g>
	<path class="st3" d="M521.3,203.9l13.7-30.7c13.1,8.6,31.6,14.5,48.6,14.5c17.3,0,24-4.8,24-12c0-23.4-83.8-6.3-83.8-61.1
		c0-26.3,21.5-47.8,65.3-47.8c19.2,0,39,4.4,53.5,12.8l-12.8,31c-14.1-7.6-28-11.4-40.9-11.4c-17.5,0-23.8,5.9-23.8,13.3
		c0,22.5,83.6,5.7,83.6,60c0,25.7-21.5,47.6-65.3,47.6C559.2,220.1,535.2,213.6,521.3,203.9z"/>
	<path class="st3" d="M708.1,102.8h-45.3V69.7h132v33.1h-45.1v114.3h-41.7V102.8z"/>
	<path class="st3" d="M912.8,188.5h-62.3l-11.6,28.6h-42.5l65.1-147.4h41.1l65.3,147.4h-43.4L912.8,188.5z M900.6,157.8l-19-47.2
		l-19,47.2H900.6z"/>
	<path class="st3" d="M1123.4,124.3c0,33.5-25.3,54.3-65.5,54.3h-25.7v38.5h-41.7V69.7h67.4C1098.1,69.7,1123.4,90.6,1123.4,124.3z
		 M1081.2,124.3c0-13.7-8.6-21.7-25.9-21.7h-23.2v43.2h23.2C1072.6,145.8,1081.2,137.8,1081.2,124.3z"/>
	<path class="st2" d="M1146.3,203.9l13.7-30.7c13.1,8.6,31.6,14.5,48.6,14.5c17.3,0,24-4.8,24-12c0-23.4-83.8-6.3-83.8-61.1
		c0-26.3,21.5-47.8,65.3-47.8c19.2,0,39,4.4,53.5,12.8l-12.8,31c-14.1-7.6-28-11.4-40.9-11.4c-17.5,0-23.8,5.9-23.8,13.3
		c0,22.5,83.6,5.7,83.6,60c0,25.7-21.5,47.6-65.3,47.6C1184.2,220.1,1160.2,213.6,1146.3,203.9z"/>
	<path class="st2" d="M1333.1,102.8h-45.3V69.7h132v33.1h-45.1v114.3h-41.7V102.8z"/>
	<path class="st2" d="M1564.7,184.9v32.2h-118.3V69.7H1562V102h-74.3v24.8h65.5V158h-65.5v27H1564.7z"/>
	<path class="st2" d="M1717.2,184.9v32.2h-118.3V69.7h115.6V102h-74.3v24.8h65.5V158h-65.5v27H1717.2z"/>
	<path class="st2" d="M1891.5,69.7v147.4h-34.3l-65.1-78.5v78.5h-40.9V69.7h34.3l65.1,78.5V69.7H1891.5z"/>
</g>
<g>
	<path class="st3" d="M583,346.6c-2.9,4.2-7,7.3-12.3,9.4c-5.2,2.1-11.3,3.1-18.3,3.1c-7,0-13.3-1.7-18.8-5
		c-5.5-3.3-9.7-8-12.7-14.1c-3-6.1-4.5-13.2-4.6-21.2v-7.5c0-13,3-23.1,9.1-30.3c6.1-7.2,14.6-10.7,25.6-10.7c9,0,16.3,2.3,21.8,6.9
		c5.5,4.6,8.9,11.2,10.1,19.6h-11.4c-2.1-11.5-8.9-17.2-20.4-17.2c-7.6,0-13.4,2.7-17.4,8.1c-3.9,5.4-5.9,13.1-6,23.3v7.1
		c0,9.7,2.2,17.4,6.6,23.1c4.4,5.7,10.4,8.6,18,8.6c4.3,0,8-0.5,11.2-1.4c3.2-0.9,5.9-2.5,8-4.8v-19.4h-20v-9.3H583V346.6z"/>
	<path class="st3" d="M657.1,318h-37.5v30.6h43.5v9.3h-54.9v-86.4h54.3v9.3h-42.9v27.8h37.5V318z"/>
	<path class="st3" d="M695.2,348.6h41v9.3h-52.4v-86.4h11.5V348.6z"/>
	<path class="st3" d="M818.1,317.5c0,8.5-1.4,15.9-4.3,22.2c-2.8,6.3-6.9,11.1-12.1,14.5c-5.2,3.3-11.3,5-18.3,5
		c-6.8,0-12.8-1.7-18.1-5c-5.3-3.3-9.4-8.1-12.3-14.3c-2.9-6.2-4.4-13.4-4.5-21.5V312c0-8.3,1.4-15.7,4.3-22
		c2.9-6.4,7-11.3,12.3-14.6c5.3-3.4,11.3-5.1,18.1-5.1c6.9,0,13,1.7,18.3,5c5.3,3.3,9.4,8.2,12.2,14.5s4.3,13.7,4.3,22.2V317.5z
		 M806.8,311.9c0-10.3-2.1-18.1-6.2-23.6c-4.1-5.5-9.9-8.2-17.3-8.2c-7.2,0-12.9,2.7-17,8.2c-4.1,5.5-6.3,13.1-6.4,22.8v6.4
		c0,9.9,2.1,17.7,6.3,23.4c4.2,5.7,9.9,8.5,17.2,8.5c7.4,0,13.1-2.7,17.1-8c4-5.4,6.1-13.1,6.2-23.1V311.9z"/>
	<path class="st3" d="M868.8,342.8l24.7-71.3H906l-32.1,86.4h-10.1l-32-86.4h12.4L868.8,342.8z"/>
	<path class="st3" d="M972.7,318h-37.5v30.6h43.5v9.3h-54.9v-86.4h54.3v9.3h-42.9v27.8h37.5V318z"/>
	<path class="st3" d="M1065.7,357.9h-11.5l-43.5-66.6v66.6h-11.5v-86.4h11.5l43.6,66.9v-66.9h11.3V357.9z"/>
	<path class="st3" d="M1141,357.9h-11.4v-86.4h11.4V357.9z"/>
	<path class="st3" d="M1234.6,357.9h-11.5l-43.5-66.6v66.6h-11.5v-86.4h11.5l43.6,66.9v-66.9h11.3V357.9z"/>
	<path class="st3" d="M1361.4,346.6c-2.9,4.2-7,7.3-12.3,9.4c-5.2,2.1-11.4,3.1-18.3,3.1c-7,0-13.3-1.7-18.8-5
		c-5.5-3.3-9.7-8-12.7-14.1c-3-6.1-4.5-13.2-4.6-21.2v-7.5c0-13,3-23.1,9.1-30.3c6.1-7.2,14.6-10.7,25.6-10.7c9,0,16.3,2.3,21.8,6.9
		c5.5,4.6,8.9,11.2,10.1,19.6H1350c-2.1-11.5-8.9-17.2-20.4-17.2c-7.6,0-13.4,2.7-17.4,8.1c-3.9,5.4-5.9,13.1-6,23.3v7.1
		c0,9.7,2.2,17.4,6.6,23.1c4.4,5.7,10.4,8.6,18,8.6c4.3,0,8-0.5,11.2-1.4c3.2-0.9,5.9-2.5,8-4.8v-19.4h-20v-9.3h31.3V346.6z"/>
	<path class="st3" d="M1435.6,318h-37.5v30.6h43.5v9.3h-54.9v-86.4h54.3v9.3h-42.9v27.8h37.5V318z"/>
	<path class="st3" d="M1470.7,348.6h49.5v9.3h-62.9v-8.5l47.4-68.6H1458v-9.3h60.3v8.3L1470.7,348.6z"/>
	<path class="st3" d="M1553.5,357.9h-11.4v-86.4h11.4V357.9z"/>
	<path class="st3" d="M1647.1,357.9h-11.5l-43.5-66.6v66.6h-11.5v-86.4h11.5l43.6,66.9v-66.9h11.3V357.9z"/>
	<path class="st3" d="M1740.1,357.9h-11.5l-43.5-66.6v66.6h-11.5v-86.4h11.5l43.6,66.9v-66.9h11.3V357.9z"/>
	<path class="st3" d="M1815.5,318H1778v30.6h43.5v9.3h-54.9v-86.4h54.3v9.3H1778v27.8h37.5V318z"/>
	<path class="st3" d="M1908.5,357.9H1897l-43.5-66.6v66.6h-11.5v-86.4h11.5l43.6,66.9v-66.9h11.3V357.9z"/>
</g>
</svg>
